<svg width="102" height="82" viewBox="0 0 102 82" fill="none" xmlns="http://www.w3.org/2000/svg">
<path opacity="0.5" d="M72.0456 41.6258V31.7469C67.0872 29.9473 63.9638 29.4466 62.383 25.5711C60.8022 21.6868 62.6797 19.0456 64.9258 14.2421L58.0687 7.25484C53.3858 9.52063 50.7667 11.4584 46.9398 9.84432C43.1256 8.23021 42.6298 5.02358 40.8753 0H31.1703C29.4243 4.99768 28.9242 8.23021 25.1058 9.84H25.1015C21.2874 11.4541 18.7022 9.53789 13.9768 7.25053L7.12404 14.2378C9.35745 19.0283 11.2476 21.6782 9.66682 25.5667C8.07758 29.4553 4.90758 29.9645 0 31.7426V41.6215C4.89486 43.3996 8.08182 43.9132 9.66259 47.7974C11.2561 51.7161 9.31931 54.4178 7.1198 59.1263L13.9768 66.1136C18.6683 63.8478 21.2831 61.91 25.1015 63.5241H25.1058C28.9199 65.1339 29.42 68.3492 31.1703 73.3641H40.871C42.6171 68.3664 43.1172 65.1425 46.961 63.5155H46.9652C50.754 61.91 53.3265 63.8219 58.0645 66.1136L64.9216 59.1263C62.6966 54.3487 60.7938 51.6902 62.3745 47.7974C63.9595 43.9175 67.1465 43.3996 72.0456 41.6258ZM36.0228 48.9152C29.3946 48.9152 24.0166 43.4384 24.0166 36.6842C24.0166 29.93 29.3946 24.4533 36.0228 24.4533C42.651 24.4533 48.029 29.93 48.029 36.6842C48.029 43.4384 42.651 48.9152 36.0228 48.9152ZM101.711 67.0631V62.415C99.3805 61.5691 97.91 61.3317 97.1641 59.5104C96.4182 57.6805 97.3039 56.4419 98.3592 54.1761L95.1299 50.8875C92.9261 51.9578 91.6928 52.8641 89.896 52.1088C88.099 51.3536 87.866 49.8431 87.0396 47.478H82.4795C81.6573 49.8301 81.42 51.3493 79.6231 52.1088C77.8262 52.8684 76.6099 51.9664 74.3892 50.8875L71.1599 54.1761C72.2109 56.4333 73.1008 57.6805 72.355 59.5104C71.6091 61.3403 70.1173 61.5777 67.8076 62.415V67.0631C70.1131 67.896 71.6091 68.142 72.355 69.9676C73.1051 71.8104 72.1939 73.0836 71.1599 75.3019L74.3892 78.5905C76.5972 77.5202 77.8304 76.6139 79.6231 77.3692C81.42 78.1244 81.6531 79.6393 82.4795 82H87.0396C87.8617 79.6479 88.0991 78.1287 89.9044 77.3648H89.9087C91.6928 76.6096 92.9007 77.5116 95.1299 78.5905L98.3592 75.3019C97.3124 73.0534 96.4182 71.7975 97.1641 69.9719C97.91 68.1463 99.406 67.896 101.711 67.0631ZM84.7595 70.4898C81.6404 70.4898 79.1103 67.9133 79.1103 64.7368C79.1103 61.5604 81.6404 58.9839 84.7595 58.9839C87.8787 58.9839 90.4087 61.5604 90.4087 64.7368C90.4087 67.9133 87.8787 70.4898 84.7595 70.4898Z" fill="#1F1534"/>
</svg>
