<svg width="69" height="84" viewBox="0 0 69 84" fill="none" xmlns="http://www.w3.org/2000/svg">
<path opacity="0.5" d="M13.6919 28L13.6954 61.054C13.6954 64.0675 16.0778 66.5 19.025 66.5H20.5379V78.897C20.5379 81.711 22.958 84 25.7066 84C28.4656 84 30.8069 81.711 30.8069 78.8935V66.5H37.6528V78.897C37.6528 81.711 40.0729 84 42.825 84C45.5839 84 47.9218 81.711 47.9218 78.8935V66.5L49.4416 66.4965C52.3785 66.4965 54.7678 64.0605 54.7678 61.047V28H13.6919ZM68.4597 33.1485C68.4597 30.331 66.0807 28 63.3252 28C60.5697 27.9965 58.1908 30.3345 58.1908 33.152V54.523C58.1908 57.344 60.5663 59.5 63.3252 59.5C66.0807 59.5 68.4597 57.3475 68.4597 54.523V33.1485ZM10.269 33.1485C10.269 30.331 7.88998 28 5.13448 28C2.37898 27.9965 0 30.3345 0 33.152V54.523C0 57.344 2.37555 59.5 5.13448 59.5C7.88998 59.5 10.269 57.3475 10.269 54.523V33.1485ZM44.3311 7.5565L47.5487 1.05C47.7815 0.588 47.4837 0 46.9907 0C46.7648 0 46.5458 0.133 46.4294 0.3675L43.181 6.9405C37.9404 4.361 31.0499 4.0985 25.2822 6.9405L22.0303 0.3675C21.9174 0.133 21.6983 0 21.469 0C20.9761 0 20.6783 0.588 20.911 1.05L24.1286 7.5565C17.8132 11.1755 13.6919 16.6005 13.6919 24.4965H54.7678C54.7678 16.6005 50.6465 11.1755 44.3311 7.5565ZM25.6758 17.5C24.7311 17.5 23.9609 16.716 23.9609 15.75C23.9609 14.791 24.7311 14 25.6758 14C26.6206 14 27.3839 14.791 27.3839 15.75C27.3839 16.716 26.6206 17.5 25.6758 17.5ZM42.7839 17.5C41.8392 17.5 41.0758 16.716 41.0758 15.75C41.0758 14.791 41.8392 14 42.7839 14C43.7286 14 44.4988 14.791 44.4988 15.75C44.4988 16.716 43.7286 17.5 42.7839 17.5Z" fill="#1F1534"/>
</svg>
