<?xml version="1.0" encoding="utf-8"?>
<!-- Generator: Adobe Illustrator 23.0.3, SVG Export Plug-In . SVG Version: 6.00 Build 0)  -->
<svg version="1.1" id="Layer_1" xmlns="http://www.w3.org/2000/svg" xmlns:xlink="http://www.w3.org/1999/xlink" x="0px" y="0px"
	 viewBox="0 0 125 35" style="enable-background:new 0 0 125 35;" xml:space="preserve">
<style type="text/css">
	.st0{fill:#FFFFFF;}
</style>
<g>
	<path class="st0" d="M4.1,1h4.6v5.7L13.6,1h6.2l-5.5,5.7L20,16h-5.7l-3.2-6.2l-2.4,2.5V16H4.1V1z"/>
	<path class="st0" d="M23.5,16V5.2h1.7v1.5c0.8-1.2,2-1.8,3.5-1.8c0.7,0,1.3,0.1,1.8,0.4c0.5,0.2,1,0.5,1.2,0.9s0.5,0.8,0.6,1.4
		c0.1,0.3,0.1,0.9,0.1,1.8V16h-1.8V9.4c0-0.8-0.1-1.3-0.2-1.7s-0.4-0.7-0.8-0.9c-0.4-0.2-0.8-0.3-1.3-0.3c-0.8,0-1.5,0.2-2,0.7
		s-0.9,1.4-0.9,2.8V16H23.5z"/>
	<path class="st0" d="M35,10.6c0-2,0.6-3.5,1.7-4.5c0.9-0.8,2.1-1.2,3.4-1.2c1.5,0,2.7,0.5,3.7,1.5s1.4,2.3,1.4,4.1
		c0,1.4-0.2,2.5-0.6,3.3c-0.4,0.8-1,1.4-1.8,1.9s-1.7,0.7-2.6,0.7c-1.5,0-2.8-0.5-3.7-1.5C35.5,13.9,35,12.4,35,10.6z M36.9,10.6
		c0,1.4,0.3,2.4,0.9,3.1c0.6,0.7,1.4,1,2.3,1c0.9,0,1.7-0.3,2.3-1s0.9-1.8,0.9-3.2c0-1.3-0.3-2.4-0.9-3.1c-0.6-0.7-1.4-1-2.3-1
		c-0.9,0-1.7,0.3-2.3,1S36.9,9.2,36.9,10.6z"/>
	<path class="st0" d="M51,16L47.7,5.2h1.9l1.7,6.3l0.6,2.3c0-0.1,0.2-0.9,0.6-2.2l1.7-6.4h1.9l1.6,6.3l0.5,2.1l0.6-2.1l1.9-6.3h1.8
		L59.2,16h-1.9l-1.7-6.5l-0.4-1.9L52.9,16H51z"/>
	<path class="st0" d="M65.7,16V1h1.8v15H65.7z"/>
	<path class="st0" d="M79.4,12.5l1.9,0.2c-0.3,1.1-0.9,2-1.7,2.6s-1.9,0.9-3.1,0.9c-1.6,0-2.9-0.5-3.8-1.5c-0.9-1-1.4-2.4-1.4-4.1
		c0-1.8,0.5-3.3,1.4-4.3s2.2-1.5,3.7-1.5c1.5,0,2.6,0.5,3.6,1.5c0.9,1,1.4,2.4,1.4,4.2c0,0.1,0,0.3,0,0.5h-8.1
		c0.1,1.2,0.4,2.1,1,2.7s1.4,1,2.3,1c0.7,0,1.3-0.2,1.7-0.5C78.8,13.9,79.1,13.3,79.4,12.5z M73.4,9.6h6.1c-0.1-0.9-0.3-1.6-0.7-2.1
		c-0.6-0.7-1.4-1.1-2.3-1.1c-0.8,0-1.6,0.3-2.1,0.9C73.7,7.8,73.4,8.6,73.4,9.6z"/>
	<path class="st0" d="M92.3,16v-1.4c-0.7,1.1-1.7,1.6-3,1.6c-0.9,0-1.7-0.2-2.4-0.7c-0.7-0.5-1.3-1.1-1.7-2c-0.4-0.9-0.6-1.8-0.6-3
		c0-1.1,0.2-2.1,0.5-3c0.4-0.9,0.9-1.6,1.6-2s1.5-0.7,2.4-0.7c0.7,0,1.2,0.1,1.8,0.4c0.5,0.3,0.9,0.6,1.3,1.1V1H94v15H92.3z
		 M86.4,10.6c0,1.4,0.3,2.4,0.9,3.1s1.3,1,2.1,1c0.8,0,1.5-0.3,2.1-1c0.6-0.7,0.8-1.7,0.8-3c0-1.5-0.3-2.6-0.9-3.3s-1.3-1-2.1-1
		c-0.8,0-1.5,0.3-2.1,1C86.7,8.1,86.4,9.2,86.4,10.6z"/>
	<path class="st0" d="M98.1,17l1.8,0.3c0.1,0.6,0.3,1,0.6,1.2c0.5,0.3,1.1,0.5,1.9,0.5c0.9,0,1.5-0.2,2-0.5s0.8-0.8,0.9-1.4
		c0.1-0.4,0.1-1.2,0.1-2.4c-0.8,1-1.8,1.4-3,1.4c-1.5,0-2.7-0.5-3.5-1.6s-1.2-2.4-1.2-3.9c0-1,0.2-2,0.6-2.9c0.4-0.9,0.9-1.6,1.6-2
		c0.7-0.5,1.6-0.7,2.5-0.7c1.3,0,2.3,0.5,3.2,1.6V5.2h1.7v9.4c0,1.7-0.2,2.9-0.5,3.6c-0.3,0.7-0.9,1.3-1.6,1.7
		c-0.7,0.4-1.7,0.6-2.8,0.6c-1.3,0-2.3-0.3-3.1-0.9C98.5,19,98.1,18.1,98.1,17z M99.7,10.4c0,1.4,0.3,2.5,0.9,3.1s1.3,1,2.1,1
		c0.8,0,1.6-0.3,2.1-1s0.9-1.7,0.9-3.1c0-1.3-0.3-2.3-0.9-3c-0.6-0.7-1.3-1-2.1-1c-0.8,0-1.5,0.3-2.1,1C99.9,8.1,99.7,9.1,99.7,10.4
		z"/>
	<path class="st0" d="M119.2,12.5l1.9,0.2c-0.3,1.1-0.9,2-1.7,2.6s-1.9,0.9-3.1,0.9c-1.6,0-2.9-0.5-3.8-1.5c-0.9-1-1.4-2.4-1.4-4.1
		c0-1.8,0.5-3.3,1.4-4.3s2.2-1.5,3.7-1.5c1.5,0,2.6,0.5,3.6,1.5c0.9,1,1.4,2.4,1.4,4.2c0,0.1,0,0.3,0,0.5H113c0.1,1.2,0.4,2.1,1,2.7
		s1.4,1,2.3,1c0.7,0,1.3-0.2,1.7-0.5C118.5,13.9,118.9,13.3,119.2,12.5z M113.1,9.6h6.1c-0.1-0.9-0.3-1.6-0.7-2.1
		c-0.6-0.7-1.4-1.1-2.3-1.1c-0.8,0-1.6,0.3-2.1,0.9C113.5,7.8,113.2,8.6,113.1,9.6z"/>
	<path class="st0" d="M4.1,19h8.7c1.4,0,2.6,0.4,3.3,1.1s1.2,1.6,1.2,2.7c0,0.9-0.3,1.7-0.8,2.3c-0.4,0.4-0.9,0.8-1.6,1
		c1.1,0.3,1.9,0.7,2.4,1.3c0.5,0.6,0.8,1.4,0.8,2.4c0,0.8-0.2,1.5-0.5,2.1S16.6,33,16,33.4c-0.4,0.2-1,0.4-1.8,0.5
		c-1,0.1-1.7,0.2-2.1,0.2h-8V19z M8.8,24.9h2c0.7,0,1.2-0.1,1.5-0.4c0.3-0.2,0.4-0.6,0.4-1.1c0-0.4-0.1-0.8-0.4-1s-0.8-0.4-1.5-0.4
		H8.8V24.9z M8.8,30.8h2.4c0.8,0,1.4-0.1,1.7-0.4s0.5-0.7,0.5-1.1c0-0.4-0.2-0.8-0.5-1.1s-0.9-0.4-1.7-0.4H8.8V30.8z"/>
	<path class="st0" d="M29.5,32.7c-0.7,0.6-1.3,1-2,1.2c-0.6,0.2-1.3,0.4-2,0.4c-1.2,0-2.1-0.3-2.8-0.9c-0.6-0.6-1-1.3-1-2.2
		c0-0.5,0.1-1,0.4-1.5c0.2-0.4,0.6-0.8,1-1.1s0.8-0.5,1.3-0.6c0.4-0.1,0.9-0.2,1.6-0.3c1.5-0.2,2.6-0.4,3.3-0.6c0-0.3,0-0.4,0-0.5
		c0-0.8-0.2-1.3-0.5-1.6c-0.5-0.4-1.2-0.6-2.1-0.6c-0.9,0-1.5,0.2-1.9,0.5s-0.7,0.8-0.9,1.6l-1.8-0.2c0.2-0.8,0.4-1.4,0.8-1.9
		c0.4-0.5,0.9-0.8,1.6-1.1c0.7-0.3,1.5-0.4,2.5-0.4c0.9,0,1.7,0.1,2.3,0.3s1,0.5,1.3,0.8c0.3,0.3,0.5,0.8,0.6,1.3
		c0.1,0.3,0.1,0.9,0.1,1.7v2.5c0,1.7,0,2.8,0.1,3.3c0.1,0.5,0.2,0.9,0.5,1.3h-1.9C29.6,33.7,29.5,33.2,29.5,32.7z M29.3,28.6
		c-0.7,0.3-1.7,0.5-3,0.7c-0.8,0.1-1.3,0.2-1.6,0.4S24.1,30,24,30.2s-0.3,0.6-0.3,0.9c0,0.5,0.2,0.9,0.6,1.2s0.9,0.5,1.6,0.5
		c0.7,0,1.3-0.2,1.9-0.5s1-0.7,1.2-1.3c0.2-0.4,0.3-1,0.3-1.8V28.6z"/>
	<path class="st0" d="M33.8,30.8l1.8-0.3c0.1,0.7,0.4,1.3,0.9,1.7s1.1,0.6,2,0.6c0.8,0,1.5-0.2,1.9-0.5S41,31.5,41,31
		c0-0.4-0.2-0.7-0.5-1c-0.3-0.2-0.9-0.4-1.9-0.6c-1.4-0.3-2.3-0.6-2.8-0.9c-0.5-0.2-0.9-0.6-1.2-1c-0.3-0.4-0.4-0.9-0.4-1.5
		c0-0.5,0.1-0.9,0.3-1.3c0.2-0.4,0.5-0.8,0.9-1c0.3-0.2,0.7-0.4,1.2-0.5s1-0.2,1.6-0.2c0.9,0,1.6,0.1,2.3,0.4c0.6,0.2,1.1,0.6,1.4,1
		c0.3,0.4,0.5,1,0.6,1.7l-1.8,0.2c-0.1-0.6-0.3-1-0.7-1.3c-0.4-0.3-0.9-0.5-1.7-0.5c-0.8,0-1.5,0.1-1.8,0.4s-0.5,0.6-0.5,1
		c0,0.2,0.1,0.5,0.2,0.6c0.2,0.2,0.4,0.4,0.7,0.5c0.2,0.1,0.7,0.2,1.6,0.5c1.3,0.3,2.2,0.6,2.7,0.9c0.5,0.2,0.9,0.5,1.2,1
		s0.4,1,0.4,1.6c0,0.6-0.2,1.2-0.5,1.7c-0.4,0.5-0.9,1-1.6,1.3c-0.7,0.3-1.4,0.4-2.3,0.4c-1.4,0-2.5-0.3-3.2-0.9
		C34.5,32.8,34,32,33.8,30.8z"/>
	<path class="st0" d="M53,30.5l1.9,0.2c-0.3,1.1-0.9,2-1.7,2.6s-1.9,0.9-3.1,0.9c-1.6,0-2.9-0.5-3.8-1.5c-0.9-1-1.4-2.4-1.4-4.1
		c0-1.8,0.5-3.3,1.4-4.3s2.2-1.5,3.7-1.5c1.5,0,2.6,0.5,3.6,1.5s1.4,2.4,1.4,4.2c0,0.1,0,0.3,0,0.5h-8.1c0.1,1.2,0.4,2.1,1,2.7
		s1.4,1,2.3,1c0.7,0,1.3-0.2,1.7-0.5S52.8,31.3,53,30.5z M47,27.6h6.1c-0.1-0.9-0.3-1.6-0.7-2.1c-0.6-0.7-1.4-1.1-2.3-1.1
		c-0.8,0-1.6,0.3-2.1,0.9S47,26.6,47,27.6z"/>
</g>
</svg>
