<svg width="62" height="84" viewBox="0 0 62 84" fill="none" xmlns="http://www.w3.org/2000/svg">
<path opacity="0.5" d="M60.1795 66.6715C58.2968 65.1105 59.0294 61.663 57.0748 59.962C58.9677 48.1845 53.6621 37.8035 47.3365 31.15C42.0274 25.5675 43.7389 20.1355 43.7389 15.435C43.7389 7.924 40.7232 0 31.5873 0C21.8215 0 19.1448 8.33 19.0489 13.083C18.8162 24.5 21.3047 27.468 14.7702 35.777C7.08218 45.5525 5.94917 55.3035 7.68463 60.4765C6.87338 61.4425 5.77803 62.5135 3.73108 63.399C-1.92368 65.919 2.22155 70.1365 0.657243 73.129C0.212255 73.9795 3.05176e-05 74.8685 3.05176e-05 75.719C3.05176e-05 78.344 2.04013 80.6155 5.74722 80.276C10.7482 79.821 15.3624 83.4435 18.3472 83.4435C20.9829 83.4435 23.1462 81.9105 24.1526 79.8C28.866 78.6135 34.6851 78.764 39.3951 80.0065C40.2406 82.425 42.534 84 45.0841 84C50.667 84 51.7418 77.5285 58.1462 75.3375C60.4533 74.55 61.6137 72.261 61.6137 70.1295C61.6137 68.7645 61.1379 67.466 60.1795 66.6715ZM28.8695 30.044C27.7775 30.044 26.8739 29.141 25.4465 28.056C23.6391 26.684 21.801 25.893 21.8215 24.451C21.8215 23.4605 23.1189 23.156 24.7961 22.0675C26.5966 20.902 27.2983 19.719 29.0714 19.719C30.8856 19.719 31.4333 20.657 33.8978 21.7455C36.3213 22.82 38.0088 23.24 38.0088 24.451C38.0088 25.6935 35.4724 26.5825 34.045 27.489C31.9467 28.812 30.8685 30.044 28.8695 30.044ZM34.5687 11.7915C37.5878 12.285 37.9267 17.71 36.4822 20.3805L35.267 19.873C35.8968 17.9725 35.8866 14.8435 33.778 14.644C32.4396 14.518 31.577 16.324 31.3922 17.871C30.8685 17.647 30.2968 17.486 29.602 17.4265C29.8142 14.196 31.8543 11.347 34.5687 11.7915ZM22.9203 12.95C25.2343 12.362 26.6 15.113 26.6103 17.9725L25.5492 18.6375C25.4054 17.437 24.8817 15.498 23.5673 15.911C22.1604 16.359 22.3898 19.7015 23.1736 20.3875L22.1262 20.9825C20.6885 18.508 20.692 13.517 22.9203 12.95ZM15.6807 80.3005C8.9614 77.175 6.67827 77.8855 5.39465 77.8855C2.73499 77.8855 1.86556 75.859 2.86507 73.941C3.71397 72.3135 3.4504 70.609 3.24159 69.2405C2.91983 67.144 2.86164 66.4615 4.87778 65.5585C7.66751 64.3475 8.90663 62.79 9.83084 61.6245C12.4255 58.345 15.044 63.504 17.1902 68.0995C18.5834 71.078 21.3252 72.5865 22.1707 75.887C22.9477 78.9355 19.7404 82.1905 15.6807 80.3005ZM39.5971 73.7415C34.8597 76.097 28.825 77.1785 24.3101 74.788C23.6426 72.8175 22.5746 71.5435 21.4245 70.2625C23.2695 69.7655 24.6387 67.4135 22.999 65.051C21.2499 62.5275 17.6763 60.767 14.0651 57.911C10.6866 55.2405 9.61861 48.657 14.2191 41.3C11.977 47.817 13.288 53.823 14.4142 55.5415C14.647 52.0835 14.914 46.3085 19.535 39.389C21.866 35.896 21.9003 31.283 21.9516 28.399L24.0739 29.883C25.6347 31.0625 26.9423 32.361 28.8181 32.361C31.5907 32.361 33.1242 30.73 35.2602 29.3755C36.0954 28.8505 37.3585 28.3185 38.4196 27.58C40.1995 36.246 47.5726 46.669 47.9868 52.605C49.7017 48.993 47.5008 40.306 47.5008 40.306C50.3829 44.8035 50.6122 48.552 50.7389 53.151C52.755 53.9945 54.9184 56.1925 55.1169 59.087L54.2783 58.989C53.847 55.7725 45.3545 51.0475 44.5912 57.1025C40.5179 57.736 42 64.3335 41.1785 68.6105C40.802 70.567 40.1037 72.114 39.5971 73.7415ZM56.1849 73.598C52.8132 74.928 50.5369 77.7525 48.9726 79.506C45.9604 82.887 41.9761 81.2665 41.5516 78.1025C41.1032 74.7215 42.7839 72.877 43.5096 69.0935C44.1702 65.639 43.4308 60.3225 44.9849 59.7555C45.9946 65.891 52.0567 63.3115 53.4396 61.6385C55.6885 61.6385 55.8768 62.4155 56.38 64.568C56.6949 65.9155 57.1296 67.0495 58.3585 68.383C59.7893 69.9475 59.3511 72.3485 56.1849 73.598ZM28.801 28.077C26.5726 28.077 24.9056 26.5615 23.5501 25.3855C22.8553 24.787 23.7213 23.681 24.4162 24.283C25.7409 25.431 27.0758 26.6455 28.801 26.6455C30.8788 26.6455 32.71 24.829 35.1917 23.828C36.0372 23.4885 36.5198 24.8255 35.6812 25.165C33.2714 26.1345 31.3374 28.077 28.801 28.077Z" fill="#1F1534"/>
</svg>
