<svg id="Layer_1" data-name="Layer 1" xmlns="http://www.w3.org/2000/svg" viewBox="0 0 23.05 20.94"><title>logo_U-bw</title><path d="M10.45,2.7l.33.38V8.91c0,6.43,0,6.51.83,7a2.67,2.67,0,0,0,2.2.05c.93-.43.93-.5,1-7.19.07-5.52.08-6,.31-6.23s.59-.25,4.4-.25c4,0,4.18,0,4.45.27s.27.46.28,6.71l0,6.43L22.13,17.4c-5.52,4.31-6.54,5.06-6.65,4.87a2.6,2.6,0,0,1-.12-1v-.77l-.72.72a7.61,7.61,0,0,1-5.16,1.95c-4,.23-6.79-1.78-7.95-5.72-.21-.71-.24-1.57-.28-7.51,0-3.69,0-6.85,0-7,.16-.66.48-.72,4.82-.68l4,0Z" transform="translate(-1.23 -2.28)"/><path d="M24.25,19.74c-.07,2.59-.07,2.6-.4,2.86s-.6.24-3.64.22l-3.3,0L19.2,21l3.63-2.82c.75-.58,1.38-1.06,1.42-1.06A23.25,23.25,0,0,1,24.25,19.74Z" transform="translate(-1.23 -2.28)"/><path d="M16.62,3.92A4.55,4.55,0,0,0,16.6,5l0,.85.85.6.84.59-.88.61-.88.61v1c0,.75,0,1,.17,1a9.24,9.24,0,0,0,1.53-1c.72-.52,1.4-1,1.49-1A8.56,8.56,0,0,1,21.41,9.3a5,5,0,0,0,1.71,1c.16-.06.19-.27.16-1l0-.92-.92-.68-.91-.68.36-.27c1.58-1.16,1.47-1,1.51-2,0-.72,0-.94-.16-1a4.67,4.67,0,0,0-1.66,1,12.28,12.28,0,0,1-1.6,1.05,10.06,10.06,0,0,1-1.48-1C16.68,3.66,16.72,3.69,16.62,3.92Z" transform="translate(-1.23 -2.28)" style="fill:#fff"/><path d="M17.85,10.44a2.21,2.21,0,0,0-1.13,1.2A12.61,12.61,0,0,0,16.57,14v2l3.34,0,3.33,0,0-.72c0-1-.07-1.11-1.27-1.11H21V13a2.8,2.8,0,0,0-.7-2.21A2.36,2.36,0,0,0,17.85,10.44Zm1.47,2a2,2,0,0,1,.21,1V14H18l.06-.73a2.38,2.38,0,0,1,.23-1A.64.64,0,0,1,19.32,12.44Z" transform="translate(-1.23 -2.28)" style="fill:#fff"/></svg>