<svg width="67" height="82" viewBox="0 0 67 82" fill="none" xmlns="http://www.w3.org/2000/svg">
<path opacity="0.5" d="M66.5037 60.1592C63.8901 67.9494 56.0659 81.743 48.0057 81.8933C42.6588 81.9992 40.9397 78.6371 34.828 78.6371C28.7196 78.6371 26.8076 81.7908 21.7533 81.9958C13.201 82.3341 0 62.0863 0 44.4284C0 28.2089 10.9997 20.1692 20.6095 20.0223C25.7635 19.9266 30.6316 23.5928 33.7739 23.5928C36.9295 23.5928 42.8417 19.1852 49.0564 19.831C51.6567 19.9437 58.9621 20.9073 63.6507 27.9527C51.2111 36.2964 53.1497 53.7459 66.5037 60.1592ZM49.1396 0C39.7426 0.389513 32.0747 10.5203 33.1454 18.8982C41.8308 19.5918 50.1637 9.58748 49.1396 0Z" fill="#1F1534"/>
</svg>
