<?xml version="1.0" encoding="utf-8"?>
<!-- Generator: Adobe Illustrator 23.0.3, SVG Export Plug-In . SVG Version: 6.00 Build 0)  -->
<svg version="1.1" id="Layer_1" xmlns="http://www.w3.org/2000/svg" xmlns:xlink="http://www.w3.org/1999/xlink" x="0px" y="0px"
	 viewBox="0 0 166 34" style="enable-background:new 0 0 166 34;" xml:space="preserve">
<style type="text/css">
	.st0{fill:#FFFFFF;}
</style>
<path class="st0" d="M44.6,3.4c3.2,0.5,5.4,1.7,6.9,3.8c1.1,1.5,1.6,3.4,1.6,5.5c0,2.2-0.5,4-1.5,5.5c-0.8,1.3-1.8,2.1-3.4,2.8
	c-2.2,1-3.7,1.3-8.2,1.3h-3.1l0,4.3l0,4.3l-0.4,0.3c-0.4,0.3-0.4,0.3-3.4,0.3h-3l-0.3-0.3L29.2,31V17.5V3.9l0.3-0.3l0.3-0.3h6.7
	C41.7,3.3,43.6,3.3,44.6,3.4z M36.8,12.8V16h2.8c3.9,0,5-0.3,5.7-1.7c0.6-1.3,0.3-3.3-0.8-4c-0.9-0.6-1.8-0.7-4.9-0.7h-2.8V12.8z"/>
<path class="st0" d="M64.1,3.6l0.4,0.3l0,10.6l0,10.6h6.3h6.3l0.3,0.3c0.3,0.3,0.3,0.4,0.3,2.9c0,2.6,0,2.6-0.3,2.9l-0.3,0.3h-9.8
	h-9.8l-0.3-0.3L57,31V17.5V3.9l0.3-0.3l0.3-0.3h3C63.7,3.3,63.7,3.3,64.1,3.6z"/>
<path class="st0" d="M102.1,3.6c0.3,0.3,0.3,0.4,0.3,2.9s0,2.6-0.3,2.9l-0.3,0.3h-6.4h-6.4v2.2v2.2h5.9c5.8,0,5.9,0,6.3,0.3l0.3,0.3
	v2.7V20l-0.3,0.3c-0.3,0.3-0.5,0.3-6.3,0.3h-5.9v2.3v2.3h6.5c6.4,0,6.5,0,6.9,0.3l0.3,0.3v2.7v2.7l-0.3,0.3
	c-0.4,0.3-0.4,0.3-10.3,0.3H82l-0.3-0.3L81.4,31V17.5V3.9l0.3-0.3L82,3.3h9.8h9.8L102.1,3.6z"/>
<path class="st0" d="M113.5,3.7c0.3,0.2,1.4,1.7,2.5,3.2c1.1,1.5,2.2,3.1,2.5,3.5l0.5,0.7l2.4-3.4c1.3-1.9,2.6-3.7,2.9-3.9l0.5-0.5
	h3.5c3,0,3.6,0,3.9,0.2c0.7,0.5,0.6,0.6-4.2,7.4c-2.5,3.5-4.5,6.4-4.5,6.5c0,0,2.1,3,4.6,6.6c4.9,6.9,5,7.1,4.4,7.6
	c-0.3,0.2-0.8,0.2-3.8,0.2c-3.5,0-3.9,0-4.2-0.5c-0.1-0.1-1.4-1.9-2.8-3.9c-1.5-2-2.7-3.7-2.7-3.7c0,0-1.3,1.7-2.7,3.8
	c-1.5,2.1-2.8,3.9-3,4.1c-0.3,0.3-0.5,0.3-4,0.2l-3.6,0l-0.3-0.4c-0.2-0.2-0.2-0.5-0.2-0.6c0.1-0.2,2.2-3.2,4.7-6.8
	c2.6-3.6,4.6-6.6,4.6-6.7c0-0.1-2-2.8-4.3-6.1c-4.4-6.2-4.7-6.7-4.7-6.9c0-0.1,0.1-0.3,0.3-0.5l0.3-0.4h3.6h3.6L113.5,3.7z"/>
<path class="st0" d="M152.2,3.7c0.2,0.2,0.5,0.7,0.7,1.2c0.9,2.4,8.9,25.8,8.9,26c0,0.1-0.1,0.4-0.3,0.6c-0.3,0.3-0.4,0.3-3.4,0.2
	c-2.8,0-3.2-0.1-3.4-0.3c-0.1-0.1-0.6-1.1-0.9-2.1l-0.6-1.9l-5.4,0l-5.4,0l-0.6,1.8c-0.4,1.1-0.7,1.9-0.9,2.1l-0.3,0.3h-3.2h-3.2
	l-0.3-0.4l-0.3-0.4l4.6-13.2c2.5-7.3,4.6-13.4,4.8-13.6c0.1-0.2,0.4-0.4,0.6-0.6c0.4-0.2,0.7-0.2,4.3-0.2l3.9,0L152.2,3.7z
	 M146.2,16.1c-0.9,2.6-1.6,4.7-1.6,4.8c0,0.1,1.5,0.1,3.2,0.1h3.2l-1.6-4.7c-0.9-2.6-1.6-4.7-1.6-4.8
	C147.8,11.4,147,13.5,146.2,16.1z"/>
<path class="st0" d="M26.3,28.2c-0.1,2.6-0.1,2.6-0.4,2.9c-0.3,0.2-0.6,0.2-3.6,0.2l-3.3,0l2.3-1.7c1.3-1,2.9-2.2,3.6-2.8
	c0.7-0.6,1.4-1.1,1.4-1.1C26.3,25.6,26.3,26.8,26.3,28.2z"/>
<path class="st0" d="M12.5,11.1l0.3,0.4v5.8c0,6.4,0,6.5,0.8,7c0.5,0.3,1.6,0.4,2.2,0.1c0.9-0.4,0.9-0.5,1-7.2
	c0.1-5.5,0.1-6,0.3-6.2c0.2-0.2,0.6-0.2,4.4-0.2c4,0,4.2,0,4.4,0.3c0.3,0.3,0.3,0.5,0.3,6.7l0,6.4l-2.1,1.7
	c-5.5,4.3-6.5,5.1-6.7,4.9c-0.1-0.1-0.1-0.5-0.1-1V29l-0.7,0.7c-1.2,1.2-2.9,1.8-5.2,2c-4,0.2-6.8-1.8-7.9-5.7
	c-0.2-0.7-0.2-1.6-0.3-7.5c0-3.7,0-6.8,0-7c0.2-0.7,0.5-0.7,4.8-0.7l4,0L12.5,11.1z M18.6,12.4c0,0.1-0.1,0.6,0,1.1l0,0.9l0.8,0.6
	l0.8,0.6l-0.9,0.6l-0.9,0.6v1c0,0.7,0,1,0.2,1c0.1,0,0.8-0.4,1.5-1c0.7-0.5,1.4-1,1.5-1c0.1,0,0.8,0.4,1.6,1c0.9,0.7,1.6,1.1,1.7,1
	c0.2-0.1,0.2-0.3,0.2-1l0-0.9l-0.9-0.7l-0.9-0.7l0.4-0.3c1.6-1.2,1.5-1,1.5-2c0-0.7,0-0.9-0.2-1c-0.1-0.1-0.8,0.3-1.7,1
	c-0.8,0.6-1.5,1-1.6,1c-0.1,0-0.7-0.4-1.5-0.9C18.7,12.1,18.7,12.1,18.6,12.4z M19.9,18.9c-0.5,0.2-0.9,0.7-1.1,1.2
	c-0.1,0.2-0.1,1.3-0.1,2.3v2l3.3,0l3.3,0l0-0.7c0.1-1-0.1-1.1-1.3-1.1h-1v-1c0-1.1-0.2-1.7-0.7-2.2C21.7,18.7,20.7,18.5,19.9,18.9z
	 M21.3,20.9c0.1,0.2,0.2,0.6,0.2,0.9v0.7h-0.8H20l0.1-0.7c0-0.4,0.1-0.8,0.2-0.9C20.6,20.5,21.1,20.5,21.3,20.9z"/>
</svg>
