<svg width="166" height="34" viewBox="0 0 166 34" fill="none" xmlns="http://www.w3.org/2000/svg">
<rect width="166" height="34" fill="url(#paint0_linear)"/>
<path d="M0 17V34H83H166V17V0H83H0V17ZM44.599 3.44064C47.8328 3.94183 50.0291 5.13387 51.4708 7.20638C52.5352 8.73705 53.0877 10.6064 53.0877 12.706C53.0877 14.9275 52.6026 16.702 51.5786 18.2327C50.7432 19.4924 49.7326 20.3323 48.1696 21.0773C45.9734 22.1203 44.4778 22.3506 39.9235 22.3506H36.7976L36.7571 26.6988L36.7167 31.047L36.3394 31.3721C35.9622 31.6972 35.9352 31.6972 32.9305 31.6972H29.8989L29.5755 31.3586L29.2386 31.0335V17.4741V3.91474L29.5755 3.58964L29.8989 3.251H36.6089C41.7425 3.251 43.6154 3.29163 44.599 3.44064ZM64.0959 3.5761L64.4732 3.9012L64.5136 14.5482L64.5406 25.1952H70.8868H77.2196L77.543 25.5339C77.8799 25.859 77.8799 25.8861 77.8799 28.4462C77.8799 31.0064 77.8799 31.0335 77.543 31.3586L77.2196 31.6972H67.4375H57.6554L57.332 31.3586L56.9951 31.0335V17.4741V3.91474L57.332 3.58964L57.6554 3.251H60.687C63.6917 3.251 63.7187 3.251 64.0959 3.5761ZM102.066 3.58964C102.403 3.91474 102.403 3.94183 102.403 6.50199C102.403 9.06215 102.403 9.08924 102.066 9.41434L101.742 9.75299H95.3287H88.9286V11.9203V14.0877H94.8437C100.611 14.0877 100.759 14.0877 101.109 14.3721L101.459 14.643V17.3386V20.0343L101.109 20.3052C100.759 20.5896 100.611 20.5896 94.8437 20.5896H88.9286V22.8924V25.1952H95.45C101.837 25.1952 101.971 25.1952 102.322 25.4797L102.672 25.7506V28.4462V31.1418L102.322 31.4127C101.971 31.6972 101.877 31.6972 92.0006 31.6972H82.0433L81.72 31.3586L81.3831 31.0335V17.4741V3.91474L81.72 3.58964L82.0433 3.251H91.8929H101.742L102.066 3.58964ZM113.505 3.65737C113.761 3.88765 114.866 5.33705 115.957 6.88128C117.049 8.4255 118.181 10.0104 118.477 10.4032L118.989 11.1211L121.347 7.69402C122.641 5.81116 123.934 4.03665 124.231 3.75219L124.756 3.251H128.3C131.291 3.251 131.897 3.27809 132.153 3.46773C132.813 3.92829 132.719 4.10438 127.976 10.8773C125.511 14.3857 123.476 17.2845 123.449 17.3386C123.436 17.3793 125.511 20.3323 128.071 23.9084C133.016 30.8438 133.11 31.0064 132.423 31.4805C132.167 31.6701 131.574 31.6972 128.637 31.6972C125.106 31.6972 124.783 31.6566 124.406 31.1689C124.311 31.047 123.045 29.2861 121.59 27.2542C120.134 25.2359 118.908 23.5697 118.854 23.5697C118.814 23.5697 117.574 25.2765 116.106 27.3625C114.624 29.4486 113.276 31.2773 113.088 31.4263C112.751 31.6837 112.575 31.6972 109.099 31.6701L105.461 31.6295L105.205 31.2773C105.03 31.047 104.963 30.8167 105.017 30.6406C105.07 30.4781 107.199 27.4167 109.759 23.8271C112.319 20.2375 114.381 17.2303 114.354 17.149C114.314 17.0677 112.4 14.3179 110.083 11.0398C105.677 4.82231 105.367 4.36175 105.367 4.11793C105.367 4.03665 105.488 3.80637 105.65 3.60319L105.919 3.251H109.476H113.034L113.505 3.65737ZM152.243 3.71155C152.472 3.92829 152.782 4.45657 152.944 4.86295C153.833 7.23347 161.823 30.6542 161.823 30.8845C161.823 31.0335 161.702 31.2773 161.54 31.4398C161.284 31.6972 161.149 31.7108 158.131 31.6701C155.302 31.6295 154.951 31.6024 154.709 31.3857C154.561 31.2502 154.143 30.2884 153.779 29.2454L153.132 27.3625L147.756 27.3896L142.38 27.4303L141.787 29.1912C141.423 30.2884 141.073 31.0741 140.857 31.2908L140.534 31.6295H137.341H134.161L133.891 31.2637L133.622 30.898L138.176 17.6502C140.682 10.3625 142.825 4.25339 142.946 4.07729C143.054 3.9012 143.337 3.64383 143.566 3.49482C143.943 3.26454 144.253 3.251 147.904 3.27809L151.839 3.31873L152.243 3.71155ZM12.4769 11.1482L12.8003 11.5275V17.3522C12.8003 23.7865 12.8138 23.8677 13.6357 24.3825C14.1747 24.7076 15.1987 24.7482 15.832 24.4367C16.7617 24.0032 16.7617 23.9355 16.8425 17.2438C16.9099 11.7307 16.9234 11.2295 17.1524 11.0127C17.368 10.7825 17.7453 10.7689 21.5584 10.7689C25.5602 10.7689 25.7354 10.7825 26.0049 11.0398C26.2609 11.3108 26.2744 11.5004 26.2878 17.745L26.3013 24.1793L24.1589 25.8454C18.6346 30.153 17.6106 30.9116 17.5028 30.7219C17.4354 30.6271 17.3815 30.1936 17.3815 29.7602V28.988L16.6674 29.706C15.4951 30.8845 13.7974 31.5211 11.5068 31.6566C7.51851 31.8869 4.71591 29.8821 3.55714 25.9402C3.34156 25.2223 3.31461 24.3689 3.27419 18.4223C3.24724 14.7378 3.24724 11.5817 3.30114 11.4191C3.46282 10.7554 3.7862 10.7012 8.12484 10.7418L12.1536 10.7689L12.4769 11.1482ZM26.2744 28.1888C26.207 30.7761 26.207 30.7896 25.8701 31.047C25.5602 31.2773 25.2773 31.2908 22.2321 31.2637L18.931 31.2231L21.2216 29.4757C22.4881 28.5004 24.1185 27.2406 24.8596 26.6582C25.6006 26.0757 26.2339 25.6016 26.2744 25.6016C26.3148 25.6016 26.3148 26.7665 26.2744 28.1888Z" fill="white"/>
<path d="M36.7841 12.8008V15.9841H39.5867C43.4672 15.9841 44.6125 15.6454 45.2592 14.3315C45.8925 13.004 45.5153 11.0398 44.4778 10.3626C43.575 9.76654 42.6318 9.61754 39.5867 9.61754H36.7841V12.8008Z" fill="white"/>
<path d="M146.153 16.0924C145.277 18.6797 144.576 20.8335 144.576 20.8876C144.576 20.9554 146.031 20.996 147.797 20.996H151.017L149.467 16.2821C148.605 13.6948 147.877 11.541 147.824 11.4868C147.77 11.4327 147.015 13.5052 146.153 16.0924Z" fill="white"/>
<path d="M18.648 12.3673C18.6076 12.4757 18.5941 12.9498 18.6211 13.4239L18.6615 14.2773L19.5104 14.8733L20.3592 15.4693L19.47 16.0789L18.5941 16.6884V17.6908C18.5941 18.4358 18.6346 18.6932 18.7693 18.6932C18.8636 18.6932 19.5508 18.2597 20.2919 17.7315C21.0195 17.2032 21.6932 16.7426 21.7875 16.702C21.8683 16.6749 22.6094 17.1354 23.4313 17.745C24.361 18.4358 25.0078 18.8287 25.1425 18.7745C25.3042 18.7203 25.3312 18.5036 25.3042 17.7856L25.2638 16.8645L24.3476 16.1872L23.4313 15.5099L23.7951 15.239C25.3716 14.0741 25.2638 14.2366 25.3042 13.2343C25.3312 12.5163 25.3042 12.2996 25.1425 12.2454C25.0213 12.1912 24.3745 12.5705 23.4852 13.2207C22.6903 13.7896 21.9627 14.2637 21.8818 14.2637C21.801 14.2637 21.1407 13.8438 20.3997 13.3155C18.7019 12.1099 18.7424 12.137 18.648 12.3673Z" fill="white"/>
<path d="M19.8742 18.8829C19.3756 19.0996 18.931 19.5873 18.7424 20.0885C18.6615 20.3052 18.5941 21.3482 18.5941 22.4319V24.3825L21.9357 24.3554L25.2638 24.3147L25.3042 23.5968C25.3581 22.5944 25.2368 22.4861 24.0377 22.4861H23.0406V21.4837C23.0406 20.4 22.8385 19.7363 22.3399 19.2757C21.7201 18.6932 20.6691 18.5307 19.8742 18.8829ZM21.3428 20.8877C21.4641 21.0638 21.5584 21.4701 21.5584 21.8359V22.4861H20.8039H20.0493L20.1032 21.7546C20.1437 21.3482 20.238 20.9147 20.3323 20.8064C20.5883 20.4948 21.1003 20.5355 21.3428 20.8877Z" fill="white"/>
<defs>
<linearGradient id="paint0_linear" x1="-21" y1="34" x2="178.5" y2="34" gradientUnits="userSpaceOnUse">
<stop stop-color="#4089ED"/>
<stop offset="0.79582" stop-color="#C73FD2"/>
</linearGradient>
</defs>
</svg>
