<svg xmlns="http://www.w3.org/2000/svg" viewBox="0 0 166 34" width="166" height="34">
	<style>
		tspan { white-space:pre }
		.shp0 { opacity: 0;fill: #131111 } 
		.shp1 { opacity: 0;fill: #000000 } 
	</style>
	<path id="Layer" fill-rule="evenodd" class="shp0" d="M0 0L166 0L166 34L0 34L0 0ZM36.61 3.25L29.9 3.25L29.58 3.59L29.24 3.91L29.24 31.03L29.58 31.36L29.9 31.7L32.93 31.7C35.94 31.7 35.96 31.7 36.34 31.37L36.72 31.05L36.76 26.7L36.8 22.35L39.92 22.35C44.48 22.35 45.97 22.12 48.17 21.08C49.73 20.33 50.74 19.49 51.58 18.23C52.6 16.7 53.09 14.93 53.09 12.71C53.09 10.61 52.54 8.74 51.47 7.21C50.03 5.13 47.83 3.94 44.6 3.44C43.62 3.29 41.74 3.25 36.61 3.25ZM60.69 3.25L57.66 3.25L57.33 3.59L57 3.91L57 31.03L57.33 31.36L57.66 31.7L77.22 31.7L77.54 31.36C77.88 31.03 77.88 31.01 77.88 28.45C77.88 25.89 77.88 25.86 77.54 25.53L77.22 25.2L64.54 25.2L64.51 14.55L64.47 3.9L64.1 3.58C63.72 3.25 63.69 3.25 60.69 3.25ZM101.74 3.25L82.04 3.25L81.72 3.59L81.38 3.91L81.38 31.03L81.72 31.36L82.04 31.7L92 31.7C101.88 31.7 101.97 31.7 102.32 31.41L102.67 31.14L102.67 25.75L102.32 25.48C101.97 25.2 101.84 25.2 95.45 25.2L88.93 25.2L88.93 20.59L94.84 20.59C100.61 20.59 100.76 20.59 101.11 20.31L101.46 20.03L101.46 14.64L101.11 14.37C100.76 14.09 100.61 14.09 94.84 14.09L88.93 14.09L88.93 9.75L101.74 9.75L102.07 9.41C102.4 9.09 102.4 9.06 102.4 6.5C102.4 3.94 102.4 3.91 102.07 3.59L101.74 3.25ZM113.03 3.25L105.92 3.25L105.65 3.6C105.49 3.81 105.37 4.04 105.37 4.12C105.37 4.36 105.68 4.82 110.08 11.04C112.4 14.32 114.31 17.07 114.35 17.15C114.38 17.23 112.32 20.24 109.76 23.83C107.2 27.42 105.07 30.48 105.02 30.64C104.96 30.82 105.03 31.05 105.2 31.28L105.46 31.63L109.1 31.67C112.58 31.7 112.75 31.68 113.09 31.43C113.28 31.28 114.62 29.45 116.11 27.36C117.57 25.28 118.81 23.57 118.85 23.57C118.91 23.57 120.13 25.24 121.59 27.25C123.05 29.29 124.31 31.05 124.41 31.17C124.78 31.66 125.11 31.7 128.64 31.7C131.57 31.7 132.17 31.67 132.42 31.48C133.11 31.01 133.02 30.84 128.07 23.91C125.51 20.33 123.44 17.38 123.45 17.34C123.48 17.28 125.51 14.39 127.98 10.88C132.72 4.1 132.81 3.93 132.15 3.47C131.9 3.28 131.29 3.25 128.3 3.25L124.76 3.25L124.23 3.75C123.93 4.04 122.64 5.81 121.35 7.69L118.99 11.12L118.48 10.4C118.18 10.01 117.05 8.43 115.96 6.88C114.87 5.34 113.76 3.89 113.5 3.66L113.03 3.25ZM151.84 3.32L147.9 3.28C144.25 3.25 143.94 3.26 143.57 3.49C143.34 3.64 143.05 3.9 142.95 4.08C142.82 4.25 140.68 10.36 138.18 17.65L133.62 30.9L133.89 31.26L134.16 31.63L140.53 31.63L140.86 31.29C141.07 31.07 141.42 30.29 141.79 29.19L142.38 27.43L147.76 27.39L153.13 27.36L153.78 29.25C154.14 30.29 154.56 31.25 154.71 31.39C154.95 31.6 155.3 31.63 158.13 31.67C161.15 31.71 161.28 31.7 161.54 31.44C161.7 31.28 161.82 31.03 161.82 30.88C161.82 30.65 153.83 7.23 152.94 4.86C152.78 4.46 152.47 3.93 152.24 3.71L151.84 3.32ZM12.15 10.77L8.12 10.74C3.79 10.7 3.46 10.76 3.3 11.42C3.25 11.58 3.25 14.74 3.27 18.42C3.31 24.37 3.34 25.22 3.56 25.94C4.72 29.88 7.52 31.89 11.51 31.66C13.8 31.52 15.5 30.88 16.67 29.71L17.38 28.99L17.38 29.76C17.38 30.19 17.44 30.63 17.5 30.72C17.61 30.91 18.63 30.15 24.16 25.85L26.3 24.18L26.29 17.75C26.27 11.5 26.26 11.31 26 11.04C25.74 10.78 25.56 10.77 21.56 10.77C17.75 10.77 17.37 10.78 17.15 11.01C16.92 11.23 16.91 11.73 16.84 17.24C16.76 23.94 16.76 24 15.83 24.44C15.2 24.75 14.17 24.71 13.64 24.38C12.81 23.87 12.8 23.79 12.8 17.35L12.8 11.53L12.48 11.15L12.15 10.77ZM26.27 25.6C26.23 25.6 25.6 26.08 24.86 26.66C24.12 27.24 22.49 28.5 21.22 29.48L18.93 31.22L22.23 31.26C25.28 31.29 25.56 31.28 25.87 31.05C26.21 30.79 26.21 30.78 26.27 28.19C26.31 26.77 26.31 25.6 26.27 25.6Z" />
	<path id="Layer" class="shp0" d="M36.78 12.8L36.78 15.98L39.59 15.98C43.47 15.98 44.61 15.65 45.26 14.33C45.89 13 45.52 11.04 44.48 10.36C43.58 9.77 42.63 9.62 39.59 9.62L36.78 9.62L36.78 12.8Z" />
	<path id="Layer" class="shp0" d="M146.15 16.09C145.28 18.68 144.58 20.83 144.58 20.89C144.58 20.96 146.03 21 147.8 21L151.02 21L149.47 16.28C148.6 13.69 147.88 11.54 147.82 11.49C147.77 11.43 147.01 13.51 146.15 16.09Z" />
	<path id="Layer" class="shp1" d="M18.65 12.37C18.61 12.48 18.59 12.95 18.62 13.42L18.66 14.28L19.51 14.87L20.36 15.47L19.47 16.08L18.59 16.69L18.59 17.69C18.59 18.44 18.63 18.69 18.77 18.69C18.86 18.69 19.55 18.26 20.29 17.73C21.02 17.2 21.69 16.74 21.79 16.7C21.87 16.68 22.61 17.14 23.43 17.75C24.36 18.44 25.01 18.83 25.14 18.77C25.3 18.72 25.33 18.5 25.3 17.79L25.26 16.86L24.35 16.19L23.43 15.51L23.8 15.24C25.37 14.07 25.26 14.24 25.3 13.23C25.33 12.52 25.3 12.3 25.14 12.25C25.02 12.19 24.37 12.57 23.49 13.22C22.69 13.79 21.96 14.26 21.88 14.26C21.8 14.26 21.14 13.84 20.4 13.32C18.7 12.11 18.74 12.14 18.65 12.37Z" />
	<path id="Layer" fill-rule="evenodd" class="shp1" d="M22.34 19.28C22.84 19.74 23.04 20.4 23.04 21.48L23.04 22.49L24.04 22.49C25.24 22.49 25.36 22.59 25.3 23.6L25.26 24.31L21.94 24.36L18.59 24.38L18.59 22.43C18.59 21.35 18.66 20.31 18.74 20.09C18.93 19.59 19.38 19.1 19.87 18.88C20.67 18.53 21.72 18.69 22.34 19.28ZM20.33 20.81C20.24 20.91 20.14 21.35 20.1 21.75L20.05 22.49L21.56 22.49L21.56 21.84C21.56 21.47 21.46 21.06 21.34 20.89C21.1 20.54 20.59 20.49 20.33 20.81Z" />
</svg>