<svg width="83" height="84" viewBox="0 0 83 84" fill="none" xmlns="http://www.w3.org/2000/svg">
<path opacity="0.5" d="M41.0758 0C18.3917 0 0 18.8055 0 42C0 65.1945 18.3917 84 41.0758 84C63.7599 84 82.1516 65.1945 82.1516 42C82.1516 18.8055 63.7599 0 41.0758 0ZM44.4988 56.1995V45.5H54.7472C54.5452 49.5005 54.0215 53.34 53.1863 56.9765C50.3692 56.5565 47.4562 56.3185 44.4988 56.1995ZM51.1976 63.7665C49.4895 68.4215 47.2303 72.506 44.4988 75.8625V63.1925C46.7785 63.2905 49.0137 63.476 51.1976 63.7665ZM44.4988 38.5V27.9475C47.4699 27.8285 50.3897 27.587 53.2206 27.1635C54.0352 30.758 54.5521 34.552 54.7472 38.5H44.4988ZM44.4988 20.951V8.1375C47.2577 11.529 49.534 15.6625 51.2455 20.3735C49.0479 20.6675 46.7956 20.853 44.4988 20.951ZM53.7511 9.5165C57.9853 11.2525 61.8088 13.8145 65.0127 17.0275C62.8152 17.8465 60.5252 18.5745 58.1017 19.152C56.9242 15.68 55.4489 12.467 53.7511 9.5165ZM28.9653 56.9765C28.1301 53.34 27.6029 49.5005 27.4044 45.5H37.6528V56.1995C34.6919 56.3185 31.7858 56.5565 28.9653 56.9765ZM37.6528 63.1925V75.8625C34.9213 72.506 32.6621 68.4215 30.954 63.7665C33.1379 63.476 35.3731 63.2905 37.6528 63.1925ZM27.4044 38.5C27.5995 34.552 28.113 30.758 28.9311 27.1635C31.7619 27.587 34.6817 27.8285 37.6528 27.9475V38.5H27.4044ZM30.9095 20.3735C32.621 15.6625 34.8973 11.529 37.6528 8.1375V20.951C35.356 20.853 33.1037 20.6675 30.9095 20.3735ZM24.0465 19.1485C21.623 18.571 19.333 17.843 17.1389 17.024C20.3462 13.811 24.1663 11.249 28.4005 9.513C26.7027 12.467 25.2274 15.68 24.0465 19.1485ZM22.1672 25.8615C21.2636 29.89 20.6817 34.1215 20.4831 38.5H7.02054C7.58533 32.697 9.55013 27.3105 12.5555 22.687C15.5677 23.9505 18.7716 25.032 22.1672 25.8615ZM22.1981 58.2785C18.8161 59.1045 15.6259 60.1755 12.624 61.4285C9.57751 56.7805 7.58876 51.352 7.02054 45.5H20.4866C20.6851 49.9275 21.2773 54.208 22.1981 58.2785ZM24.091 64.988C25.2616 68.404 26.7198 71.5715 28.3937 74.48C24.2073 72.765 20.4318 70.2415 17.2484 67.0775C19.4254 66.276 21.6949 65.555 24.091 64.988ZM58.0607 64.988C60.4567 65.5585 62.7228 66.2725 64.9032 67.0775C61.7164 70.238 57.9408 72.765 53.7545 74.4835C55.4284 71.5715 56.8866 68.404 58.0607 64.988ZM59.9536 58.2785C60.8778 54.208 61.4665 49.9275 61.6685 45.5H75.1345C74.5629 51.352 72.5741 56.7805 69.5276 61.4285C66.5257 60.1755 63.332 59.1045 59.9536 58.2785ZM61.6685 38.5C61.4699 34.1215 60.8846 29.89 59.9844 25.8615C63.38 25.032 66.5873 23.9505 69.5995 22.687C72.6015 27.3105 74.5663 32.697 75.1311 38.5H61.6685Z" fill="#1F1534"/>
</svg>
